<?xml version="1.0" encoding="UTF-8"?>
<svg id="Layer_1" xmlns="http://www.w3.org/2000/svg" version="1.1" viewBox="0 0 580 224.04">
  <!-- Generator: Adobe Illustrator 30.3.0, SVG Export Plug-In . SVG Version: 2.1.3 Build 182)  -->
  <defs>
    <style>
      .st0 {
        fill: #00539f;
      }
    </style>
  </defs>
  <path class="st0" d="M69.67,44.68h-20.24v134.8h20.79c41.62,0,58.81-20.24,58.81-68.22s-18.58-66.58-59.36-66.58Z"/>
  <polygon class="st0" points="234.71 136.49 286.02 136.49 260.23 46.34 234.71 136.49"/>
  <path class="st0" d="M580,0h-61.61l-50.42,69.52L417.55,0H0v224.04h417.55l50.42-69.52,50.42,69.52h61.61l-81.22-112.03L580,0h0ZM71.61,212.78H11.42V11.12h61.57c62.42,0,94.59,34.11,94.59,100.14s-32.16,101.52-95.97,101.52h0ZM307.66,212.78l-12.49-44.11h-69.62l-12.76,44.11h-36.06L237.49,11.11h47.41l60.76,201.67h-38.01.01ZM461.78,145.92l-48.51,66.95-50.4-.05,73.15-100.89L362.87,11.12h50.4l48.51,66.84,24.66,33.97-24.66,33.99Z"/>
</svg>