<?xml version="1.0" encoding="UTF-8"?>
<svg id="Layer_1" xmlns="http://www.w3.org/2000/svg" version="1.1" viewBox="0 0 600 83.25">
  <!-- Generator: Adobe Illustrator 30.3.0, SVG Export Plug-In . SVG Version: 2.1.3 Build 182)  -->
  <defs>
    <style>
      .st0 {
        fill: #0c2a31;
      }

      .st1 {
        fill: #02a3d5;
      }
    </style>
  </defs>
  <path class="st1" d="M55.35,27.7c-.1-1.7-.2-2.5-.5-3.6-1.7-5.9-7.2-10.2-13.6-10.2H13.85v55.4h13.9v13.7H-.05V0h41.3c14,0,25.5,10.2,27.5,23.6.2,1.3.3,2.6.3,4.1h-13.7Z"/>
  <path class="st1" d="M69.15,41.5v13.7c0,15.3-12.9,27.8-28.2,27.8h.6v-13.8h-.8c7.8,0,14.5-6.4,14.5-14.2v-13.5h13.9Z"/>
  <path class="st0" d="M184.15,34.4c0-6-4.6-9.4-10.6-9.4h-10.6v32.4h10.6c5.9,0,10.6-3.4,10.6-9.4v-13.6ZM152.15,67.3V15h21.5c13.7,0,21.5,7.8,21.5,19.3v13.7c0,11.6-7.8,19.3-21.5,19.3h-21.5Z"/>
  <path class="st0" d="M239.25,33.6c0-6.1-4.6-9.4-10.6-9.4s-10.6,3.4-10.6,9.4v15.1c0,6,4.6,9.4,10.6,9.4s10.6-3.4,10.6-9.4v-15.1ZM228.75,68c-13.7,0-21.5-7.8-21.5-19.3v-15.1c0-11.6,7.8-19.4,21.5-19.4s21.5,7.8,21.5,19.4v15.1c-.1,11.6-7.9,19.3-21.5,19.3"/>
  <polygon class="st0" points="291.85 38 282.65 67.3 270.85 67.3 260.45 15 271.35 15 277.95 50.4 288.55 15 295.25 15 305.85 50.4 312.45 15 323.35 15 312.85 67.3 301.15 67.3 291.85 38"/>
  <path class="st0" d="M376.15,15h10.9v37.3c0,10.4-6.3,15.7-16.9,15.7s-16.9-5.3-16.9-15.7h11c.3,3.7,2.4,5.7,5.9,5.7,4.2,0,6-2.6,6-6V15Z"/>
  <path class="st0" d="M432.35,33.6c0-6.1-4.6-9.4-10.6-9.4s-10.6,3.4-10.6,9.4v15.1c0,6,4.6,9.4,10.6,9.4s10.6-3.4,10.6-9.4v-15.1ZM421.75,68c-13.7,0-21.5-7.8-21.5-19.3v-15.1c0-11.6,7.8-19.4,21.5-19.4s21.5,7.8,21.5,19.4v15.1c0,11.6-7.8,19.3-21.5,19.3"/>
  <polygon class="st0" points="499.45 67.3 488.55 67.3 467.45 33.6 467.45 67.3 456.55 67.3 456.55 15 467.45 15 488.55 48.7 488.55 15 499.45 15 499.45 67.3"/>
  <polygon class="st0" points="524.75 35.9 545.95 35.9 545.95 45.9 524.75 45.9 524.75 57.4 548.45 57.4 548.45 67.3 513.85 67.3 513.85 15 548.45 15 548.45 25 524.75 25 524.75 35.9"/>
  <path class="st0" d="M559.95,50.8h11.2c.6,4.4,4.4,7.3,9.8,7.3,4.8,0,8.1-1.6,8.1-5.2,0-2.9-1.9-4.6-5.9-5.5l-9.6-2.4c-8.7-2.2-13-7.8-13-15.5,0-10.5,8.9-15.2,18.9-15.2,11.4,0,18.4,6.1,19.7,15h-11.2c-1-3.5-5-5.1-8.6-5.1-4.6,0-7.8,1.6-7.8,5.3,0,3.1,2.6,4.4,5.7,5.2l9.3,2.3c8.8,2.2,13.5,7.1,13.5,15.9,0,9.4-6.7,15.2-19,15.2-12.5-.1-20.6-6.9-21.1-17.3"/>
</svg>