<?xml version="1.0" encoding="UTF-8"?>
<svg id="Layer_1" data-name="Layer 1" xmlns="http://www.w3.org/2000/svg" version="1.1" viewBox="0 0 827.3 150">
  <defs>
    <style>
      .cls-1 {
        fill: #001efe;
        stroke-width: 0px;
      }
    </style>
  </defs>
  <path class="cls-1" d="M436.7,23.5c-3-1.5-5.8-2.5-8.8-3.2-5.6-1.2-11.4-1.8-17.1-1.9-11.5-.1-22.9,0-34.4-.2-1.2,0-1.5.2-1.5,1.4,0,14.5,0,29,0,43.5,0,1.1.2,1.4,1.3,1.4,11.2,0,22.4,0,33.6-.1,5.8,0,11.6-.7,17.3-2,1-.2,1.6-.3,1.6,1.1,0,6,0,12,0,18.1,0,.4,0,.7,0,1.2-11.4-2.8-23-2.1-34.6-2.2-6,0-11.9,0-17.9,0-.8,0-1.2,0-1.2,1.1,0,16.4,0,32.9,0,49.3,0,1,.4,1.1,1.2,1.1,12.8,0,25.5.2,38.3-.3,7.4-.3,14.8-1.3,21.8-4,1.5-.6,2.9-1.3,4.3-1.9.9-.4,1.4-.5,1.4.8,0,6.6,0,13.2,0,19.8,0,1.1-.4,1.1-1.3,1.1-8.5,0-17.1,0-25.6,0-21.4,0-42.8,0-64.2,0-1.9,0-2,0-1.2-1.8,2.4-5.1,3.1-10.6,3.6-16.1.5-5.1.3-10.1.3-15.2,0-29.3,0-58.6,0-87.9,0-7.1-.8-14.2-3.4-20.9-1.1-2.9-1.2-2.9,2-2.9,27.6,0,55.3,0,82.9,0,1.3,0,1.8.2,1.7,1.7,0,5.9,0,11.7,0,17.6v1.6Z"/>
  <path class="cls-1" d="M235.3,128.2c0-3.5,0-6.9,0-10.4,0-.5-.3-1.1.3-1.4.5-.2.8.4,1.1.7,4.9,4.3,10.2,8.2,16.1,11,12.3,5.8,25.1,7.2,38.1,3.2,14.8-4.6,19.5-23.1,9-34.3-3.5-3.8-8.1-6.1-12.7-8.2-7.7-3.6-15.7-6.5-23.6-9.7-4.8-2-9.4-4.2-13.8-7-9.8-6.3-15.6-15.1-16.2-26.9-.6-12.2,2.2-23.2,11.2-32.1,6.1-6,13.6-9.3,21.8-10.9,16.1-3.2,31.7-1.6,46.9,4.6,1,.4,1.4.9,1.4,2,0,6.5,0,13,0,19.5,0,.4.2.9-.2,1.2-.5.3-.8-.2-1.2-.5-6.8-5.5-14.2-9.8-22.9-11.4-8.5-1.6-16.9-1.5-24.9,2.4-7.1,3.4-10.4,9.4-10.9,17.1-.6,8.5,3.1,14.8,10.3,19.2,6.4,3.9,13.3,6.5,20.2,9.2,7.6,3,15.2,5.8,22.3,9.9,5.8,3.5,11,7.7,14.4,13.6,3.6,6.1,4.7,12.8,4.6,19.7-.1,8.1-2,15.7-6.7,22.5-5.7,8.2-13.7,13.1-23,15.8-8.7,2.6-17.6,3.2-26.7,2.6-11.6-.8-22.7-3.6-33.2-8.4-1.3-.6-1.9-1.3-1.8-2.8.1-3.3,0-6.7,0-10Z"/>
  <path class="cls-1" d="M44.4,2.7c14.3,0,28.7,0,43,0,1.3,0,1.6.3,1.6,1.6,0,6.2,0,12.5,0,18.7,0,1.1-.2,1.3-1.2.8-5.8-3.4-12.2-4.5-18.8-4.9-14-1-28-.3-42.1-.5-.9,0-1.1.3-1.1,1.1,0,15.3,0,30.7,0,46,0,.8.2,1.1,1,1.1,14.3-.2,28.7.4,43-.4,4.2-.2,8.4-.9,12.5-1.9,1.2-.3,1.7-.3,1.6,1.2,0,6,0,12,0,18.1,0,1.3-.4,1.6-1.5,1.3-8.5-2.1-17.2-2.2-25.9-2.2-9.8,0-19.7,0-29.5,0-1,0-1.3.2-1.3,1.3,0,13.6,0,27.1.2,40.7.1,7.5.8,14.9,4.1,21.8.4.9.1,1.3-.9,1.3-9.4,0-18.7,0-28.1,0-1,0-1.3-.3-.9-1.2,3.7-7.7,4.2-15.9,4.2-24.2,0-31.9,0-63.9,0-95.8,0-7.1-.8-14.1-3.4-20.8C-.2,2.7-.2,2.7,2.9,2.7c13.8,0,27.6,0,41.5,0Z"/>
  <path class="cls-1" d="M162,2.7c18.7,0,37.4,0,56.1,0,1.3,0,1.6.3,1.6,1.6,0,6.4,0,12.9,0,19.3,0,1.5-.2,1.7-1.5.9-6.2-3.8-13.1-5-20.2-5.7-8.1-.8-16.2-.4-24.3-.5-1.2,0-1.5.4-1.5,1.5,0,34,0,68,0,102.1,0,7.2.5,14.5,3,21.5.3.8.6,1.7,1,2.5.8,1.7.7,1.7-1.1,1.7-7.9,0-15.8,0-23.7,0-1.3,0-2.5,0-3.8,0-1,0-1.4-.3-.9-1.3,3.1-6.6,3.8-13.7,3.9-20.8.6-35.2.1-70.4.3-105.7,0-1.2-.3-1.6-1.6-1.6-7.8.2-15.7-.3-23.5.5-7.2.7-14.3,1.9-20.6,5.8-1,.6-1.3.4-1.2-.7,0-6.6,0-13.3,0-19.9,0-1.5.9-1.1,1.6-1.1,18.7,0,37.5,0,56.2,0Z"/>
  <path class="cls-1" d="M540.2,63.8c0,19.8,0,39.7,0,59.5,0,6.8.6,13.6,2.8,20.1.3,1,.9,1.9,1.3,2.9.3.8.3,1.3-.8,1.3-9.2,0-18.4,0-27.6,0-1.2,0-1.2-.6-.8-1.4,3.5-7.9,4-16.4,4-24.9.1-30.1,0-60.2,0-90.3,0-1.8-.2-3.6-.6-5.4-1.1-4.2-3.8-6.4-8.2-6.6-.5,0-1.4.5-1.5-.6,0-.9-.4-1.7.8-2.4,9.3-5.1,18.6-10.3,27.9-15.5.2-.1.4-.2.5-.3,1.5-.6,2.1-.2,2.1,1.4,0,20.7,0,41.4,0,62.2,0,0,0,0,0,0Z"/>
  <path class="cls-1" d="M687.1,71.4c0-1.6-.2-4.3-.4-7-.8-10.1-2.8-19.8-7-29.1-8.9-20.1-23.5-32.8-46.2-34.6-10.6-.8-20.6,1.2-29.9,6.5-11.9,6.9-19.7,17.3-24.9,29.8-4.8,11.5-6.7,23.7-6.9,36.1-.2,12.8,1.3,25.3,5.7,37.4,3.4,9.2,8.2,17.6,15.3,24.5,8.9,8.7,19.6,13.6,32.1,14.5,10.7.8,20.7-1.1,30-6.4,11.9-6.8,19.7-17.1,24.9-29.5,5.5-13.1,7.3-26.9,7.1-42.2ZM665.2,83.1c-.6,10.9-2.1,21.5-6.8,31.5-4.1,8.6-10.1,15.4-19.6,17.8-11.2,2.9-21.6,1.3-30.3-6.9-5.4-5.1-8.5-11.6-10.7-18.5-3.3-10.4-4.2-21.2-4.1-32.5,0-10.4.9-21.1,4.2-31.4,2.2-7,5.5-13.4,10.9-18.6,6.5-6.1,14.3-8.3,22.9-7.7,13.9.8,22.4,8.9,27.6,21.1,3.4,8,4.9,16.4,5.6,24.9.6,6.8.7,13.6.3,20.4Z"/>
  <path class="cls-1" d="M824.6,61.3c-1.1-9.5-3.2-18.7-7.3-27.4-9.1-19.4-23.6-31.5-45.6-33.2-10.1-.8-19.7,1.1-28.6,5.9-11.5,6.2-19.4,15.7-24.8,27.4-6.1,13.1-8.2,27-8.2,41.3,0,6,.4,11.9,1.3,17.8,1.7,10.8,4.8,21.1,10.7,30.4,12,19.1,29.3,28.1,51.9,25.9,13.5-1.3,24.7-7.5,33.5-17.8,11.2-13.1,15.8-28.7,17.5-45.5.8-8.2.7-16.5-.2-24.7ZM803.1,87.6c-1,11.2-3.2,22-9.1,31.7-11,18.1-35.7,18-47.5,6.1-5.2-5.2-8.4-11.5-10.6-18.4-3.3-10.5-4.2-21.3-4.1-32.2,0-10.8.9-21.4,4.1-31.7,2.2-7.1,5.5-13.5,11-18.7,6.4-6,14.2-8.2,22.8-7.7,13.9.8,22.4,8.8,27.7,21,3.4,8,4.9,16.4,5.6,24.9.7,8.3.7,16.6,0,24.9Z"/>
</svg>