<?xml version="1.0" encoding="UTF-8"?>
<svg id="Layer_1" xmlns="http://www.w3.org/2000/svg" version="1.1" viewBox="0 0 113.68 45">
  <!-- Generator: Adobe Illustrator 30.3.0, SVG Export Plug-In . SVG Version: 2.1.3 Build 182)  -->
  <polygon points="15.76 36.6 4.29 20.61 0 20.61 0 44.42 4.59 44.42 4.59 28.41 16.05 44.42 20.35 44.42 20.35 20.61 15.76 20.61 15.76 36.6"/>
  <polygon points="46.92 20.61 41.36 20.61 35.32 30.44 29.11 20.61 23.26 20.61 32.53 34.76 32.53 44.42 37.5 44.42 37.5 34.82 46.92 20.61"/>
  <path d="M59.96,30.48l-2.79-.64c-3.27-.73-3.96-1.32-3.96-2.74s1.42-2.64,4.1-2.64c2.38-.04,4.7.8,6.51,2.35l2.89-3.82c-2.69-2.2-6.11-2.98-9.19-2.98-5.57,0-9.49,3.28-9.49,7.63,0,3.42,2.3,5.62,6.99,6.55l2.74.54c3.18.64,4.35,1.81,4.35,3.18,0,1.91-1.61,2.79-4.3,2.84-2.59.05-5.09-.88-7.34-3.18l-2.98,3.61c2.3,2.64,6.36,3.82,10.17,3.82,5.82,0,9.44-2.84,9.44-7.43,0-3.96-2.49-6.01-7.14-7.09Z"/>
  <path d="M75.16,34.61c.77,3.58,3.53,5.95,7.15,5.95,2.64,0,4.73-1.22,6.25-3.31l3.46,2.93c-2.26,3.09-5.88,4.89-9.71,4.82-7.56,0-12.44-5.42-12.44-12.49s4.84-12.49,11.77-12.49c5.19,0,12.29,3.61,11.11,14.59h-17.59ZM88.05,30.75c-.53-4.88-3.68-6.35-5.83-6.35-3.65,0-6.29,2.29-7.13,6.35h12.96Z"/>
  <polygon points="90.24 7.18 106.5 7.18 106.5 23.44 113.68 23.44 113.68 0 90.24 0 90.24 7.18"/>
</svg>