<?xml version="1.0" encoding="UTF-8"?>
<svg id="ARTWORK" xmlns="http://www.w3.org/2000/svg" version="1.1" viewBox="0 0 120 30.22">
  <!-- Generator: Adobe Illustrator 30.3.0, SVG Export Plug-In . SVG Version: 2.1.3 Build 182)  -->
  <defs>
    <style>
      .st0 {
        fill: #00f58c;
      }

      .st1 {
        fill: #009;
      }
    </style>
  </defs>
  <polygon class="st1" points="25.02 0 20.01 10.01 25.02 20.01 35.02 0 25.02 0"/>
  <polygon class="st1" points="0 30.02 10.01 30.02 20.01 10.01 10.01 10.01 0 30.02"/>
  <polygon class="st0" points="25.02 20.01 15.01 20.01 20.01 10.01 25.02 20.01"/>
  <path class="st1" d="M43.04,0h-4.68v13.34h4.68c4.24,0,6.82-2.6,6.82-6.67S47.28,0,43.04,0ZM43.04,10.72h-1.71V2.62h1.69c2.42,0,3.77,1.6,3.77,4.05s-1.36,4.05-3.75,4.05ZM55.99,3.35c-2.82,0-4.91,2.19-4.91,5.09,0,3.05,2.01,5.11,4.96,5.11,1.95,0,3.73-.98,4.46-2.86l-2.49-.8c-.28.85-1,1.3-1.93,1.3-1.13,0-1.93-.76-2.14-2.1h6.63v-.78c0-2.77-1.62-4.96-4.59-4.96h.01ZM54.04,7.27c.3-1.08,1-1.62,1.91-1.62,1.1,0,1.67.74,1.69,1.62h-3.6ZM68.16,13.34v-.97c-.54.61-1.41,1.17-2.64,1.17-2.01,0-3.33-1.37-3.33-3.51V3.55h2.97v5.78c0,.98.43,1.62,1.39,1.62.82,0,1.6-.58,1.6-1.73V3.55h2.97v9.79h-2.97.01ZM73.67,6h-1.24v-2.45h1.24V.84h2.97v2.71h3.11l-1.23,2.45h-1.89v3.96c0,.82.4.97,1.14.97.35,0,.52-.02.85-.06v2.43c-.52.07-1.08.13-1.78.13-2.12,0-3.19-.71-3.19-2.71v-4.72h.02ZM88.64,10.17c0,2.14-1.97,3.38-4.46,3.38-1.71,0-3.64-.58-4.55-1.64l1.54-2.01c.8.87,2.06,1.39,3.12,1.39.78,0,1.43-.26,1.43-.78,0-.65-.65-.72-2.21-1-1.62-.32-3.34-.74-3.34-2.86,0-1.99,1.77-3.31,4.18-3.31,1.77,0,3.33.67,4.14,1.56l-1.49,1.91c-.74-.78-1.71-1.21-2.68-1.21-.72,0-1.19.28-1.19.72,0,.54.58.61,1.77.84,1.77.35,3.73.78,3.73,2.99v.02ZM96.37,9.48l2.58,1c-.41,1.64-1.95,3.07-4.35,3.07-2.9,0-4.94-2.08-4.94-5.09s2.04-5.11,4.94-5.11c2.38,0,3.9,1.41,4.33,3.03l-2.56,1.04c-.2-.91-.78-1.62-1.75-1.62-1.24,0-2.03.98-2.03,2.66s.78,2.64,2.03,2.64c.97,0,1.54-.69,1.75-1.62ZM109.15,6.88v6.47h-2.97v-5.61c0-.98-.41-1.71-1.38-1.71-.82,0-1.62.58-1.62,1.73v5.59h-2.97V.01h2.97v4.53c.54-.63,1.45-1.19,2.69-1.19,2.01,0,3.27,1.39,3.27,3.53h0ZM120,8.31c0-2.77-1.62-4.96-4.59-4.96s-4.91,2.19-4.91,5.09c0,3.05,2.01,5.11,4.96,5.11,1.95,0,3.73-.98,4.46-2.86l-2.49-.8c-.28.85-1,1.3-1.93,1.3-1.13,0-1.93-.76-2.14-2.1h6.63v-.78h0ZM113.46,7.27c.3-1.08,1-1.62,1.91-1.62,1.1,0,1.67.74,1.69,1.62h-3.6ZM46.77,23.09c.87-.37,1.8-1.28,1.8-2.82,0-2.32-1.56-3.59-4.48-3.59h-5.74v13.34h6.08c2.86,0,4.53-1.39,4.53-3.75,0-1.6-.93-2.71-2.19-3.18ZM41.33,19.22h2.45c1.21,0,1.88.46,1.88,1.39s-.67,1.41-1.88,1.41h-2.45v-2.81h0ZM44.15,27.45h-2.82v-3.01h2.82c1.19,0,1.84.61,1.84,1.51s-.65,1.51-1.84,1.51h0ZM55.12,20.02c-2.9,0-4.91,2.06-4.91,5.11s2.01,5.09,4.91,5.09,4.91-2.04,4.91-5.09-2.03-5.11-4.91-5.11ZM55.12,27.81c-1.19,0-1.95-.97-1.95-2.68s.76-2.68,1.95-2.68,1.95.97,1.95,2.68-.76,2.68-1.95,2.68ZM67.05,20.17c.28,0,.46.02.65.04v2.86c-.32-.06-.54-.07-.87-.07-1.28,0-2.3.8-2.3,2.21v4.81h-2.97v-9.79h2.97v1.28c.45-.78,1.39-1.34,2.53-1.34h0ZM77.41,26.84c0,2.14-1.97,3.38-4.46,3.38-1.71,0-3.64-.58-4.55-1.64l1.54-2.01c.8.87,2.06,1.39,3.12,1.39.78,0,1.43-.26,1.43-.78,0-.65-.65-.72-2.21-1-1.62-.32-3.34-.74-3.34-2.86,0-1.99,1.77-3.31,4.18-3.31,1.77,0,3.33.67,4.14,1.56l-1.49,1.91c-.74-.78-1.71-1.21-2.68-1.21-.72,0-1.19.28-1.19.72,0,.54.58.61,1.77.84,1.77.35,3.73.78,3.73,2.99v.02ZM83.43,20.02c-2.82,0-4.91,2.19-4.91,5.09,0,3.05,2.01,5.11,4.96,5.11,1.95,0,3.73-.98,4.46-2.86l-2.49-.8c-.28.85-1,1.3-1.93,1.3-1.13,0-1.93-.76-2.14-2.1h6.63v-.78c0-2.77-1.62-4.96-4.59-4.96h.01ZM81.48,23.94c.3-1.08,1-1.62,1.91-1.62,1.1,0,1.67.74,1.69,1.62h-3.6ZM54.49,16.68v2.21h-2.52v-2.21h2.52ZM58.27,16.68v2.21h-2.52v-2.21h2.52Z"/>
</svg>